<mxfile host="app.diagrams.net" modified="2021-07-28T07:31:12.775Z" agent="5.0 (Windows)" etag="QkUwQkcuQlffJyCllnLR" version="14.7.7" type="github">
  <diagram id="38-RYg7YOeez1GykrM8r" name="Page-1">
    <mxGraphModel dx="1038" dy="508" grid="1" gridSize="10" guides="1" tooltips="1" connect="1" arrows="1" fold="1" page="1" pageScale="1" pageWidth="1169" pageHeight="827" math="0" shadow="0">
      <root>
        <mxCell id="0" />
        <mxCell id="1" parent="0" />
        <mxCell id="pgjDkxNFBhTPu0ai2_G_-1" value="PROCESSING OF PAYMENT VOUCHERS" style="swimlane;" vertex="1" parent="1">
          <mxGeometry x="10" y="10" width="1000" height="330" as="geometry" />
        </mxCell>
      </root>
    </mxGraphModel>
  </diagram>
</mxfile>
